# xmcd CD database file
#
# Track frame offsets:
#	150
#	13043
#	23143
#	35503
#	45630
#	53958
#	63833
#	75808
#	85113
#	96330
#	107648
#	120148
#	127788
#	138490
#	148953
#	158948
#	170848
#	181735
#
# Disc length: 2587 seconds
#
# Revision: 3
# Processed by: cddbd v1.4PL0 Copyright (c) Steve Scherf et al.
# Submitted via: CDex 1.51
#
DISCID=e20a1912
DTITLE=Johnny Cash - The Sun Years
DYEAR=1990
DGENRE=Country
TTITLE0=Folsum Prison Blues
TTITLE1=Hey Porter
TTITLE2=I Walk The Line
TTITLE3=Get Rhythm
TTITLE4=Guess Things Happen That Way
TTITLE5=Rock Island Line
TTITLE6=Home Of The Blues
TTITLE7=Luther Played The Boogie
TTITLE8=Mean Eyed Cat
TTITLE9=Big River
TTITLE10=Next In Line
TTITLE11=Come In Stranger
TTITLE12=Train Of Love
TTITLE13=There You Go
TTITLE14=Ballad Of A Teenage Queen
TTITLE15=So Doggone Lonesome
TTITLE16=The Ways Of A Woman In Love
TTITLE17=Give My Love To Rose
EXTD=YEAR: 1990
EXTT0=
EXTT1=
EXTT2=
EXTT3=
EXTT4=
EXTT5=
EXTT6=
EXTT7=
EXTT8=
EXTT9=
EXTT10=
EXTT11=
EXTT12=
EXTT13=
EXTT14=
EXTT15=
EXTT16=
EXTT17=
PLAYORDER=
